<svg width="59" height="59" viewBox="0 0 59 59" fill="none" xmlns="http://www.w3.org/2000/svg">
<rect width="59" height="59" rx="15.6835" fill="#9747FF"/>
<path d="M9.88817 29.6173L4.9255 26.7224C4.78188 26.6332 4.62178 26.5738 4.45473 26.5478C4.28768 26.5217 4.1171 26.5295 3.95313 26.5708C3.78917 26.612 3.63518 26.6858 3.50032 26.7877C3.36545 26.8897 3.25248 27.0178 3.16812 27.1643C3.08377 27.3108 3.02974 27.4728 3.00927 27.6406C2.9888 27.8084 3.0023 27.9787 3.04897 28.1412C3.09563 28.3037 3.17451 28.4551 3.28091 28.5865C3.38731 28.7179 3.51905 28.8265 3.66829 28.906L8.63096 31.8505C8.77359 31.9503 8.9354 32.0195 9.10615 32.0535C9.2769 32.0876 9.45285 32.0858 9.62287 32.0483C9.79289 32.0108 9.95327 31.9384 10.0938 31.8356C10.2344 31.7329 10.3521 31.6021 10.4395 31.4515C10.5268 31.3009 10.582 31.1338 10.6014 30.9608C10.6208 30.7877 10.6041 30.6126 10.5522 30.4464C10.5004 30.2801 10.4146 30.1265 10.3003 29.9952C10.186 29.8639 10.0457 29.7577 9.88817 29.6835V29.6173Z" fill="white"/>
<path d="M16.7201 22.7853C16.799 22.9237 16.9045 23.045 17.0305 23.1424C17.1565 23.2398 17.3006 23.3113 17.4543 23.3529C17.6081 23.3944 17.7685 23.4051 17.9264 23.3843C18.0843 23.3636 18.2365 23.3118 18.3744 23.232C18.6501 23.0693 18.8522 22.8063 18.9386 22.498C19.0249 22.1897 18.9887 21.86 18.8375 21.5777L15.9592 16.6151C15.8798 16.4658 15.7711 16.3341 15.6397 16.2277C15.5083 16.1213 15.3569 16.0424 15.1944 15.9957C15.0319 15.9491 14.8617 15.9356 14.6938 15.9561C14.526 15.9765 14.364 16.0305 14.2175 16.1149C14.071 16.1993 13.9429 16.3122 13.841 16.4471C13.739 16.582 13.6652 16.7359 13.624 16.8999C13.5828 17.0639 13.5749 17.2345 13.601 17.4015C13.627 17.5686 13.6864 17.7287 13.7756 17.8723L16.7201 22.7853Z" fill="white"/>
<path d="M29.4742 20.2711C29.8076 20.2711 30.1274 20.1387 30.3632 19.9029C30.5989 19.6671 30.7314 19.3473 30.7314 19.0139V13.2572C30.7314 12.9238 30.5989 12.604 30.3632 12.3682C30.1274 12.1325 29.8076 12 29.4742 12C29.1408 12 28.821 12.1325 28.5852 12.3682C28.3494 12.604 28.217 12.9238 28.217 13.2572V19.0305C28.2213 19.361 28.3557 19.6766 28.591 19.9088C28.8263 20.141 29.1436 20.2711 29.4742 20.2711V20.2711Z" fill="white"/>
<path d="M40.5244 23.2323C40.7091 23.3453 40.9201 23.408 41.1365 23.4142C41.3577 23.4148 41.5751 23.3569 41.7668 23.2466C41.9585 23.1362 42.1177 22.9772 42.2283 22.7856L45.1231 17.823C45.2768 17.5343 45.3122 17.1971 45.222 16.8828C45.1317 16.5685 44.9228 16.3015 44.6394 16.1383C44.3559 15.9752 44.0202 15.9285 43.703 16.0083C43.3859 16.088 43.1121 16.2879 42.9396 16.5658L40.0612 21.5284C39.9787 21.6704 39.9252 21.8274 39.9039 21.9903C39.8825 22.1532 39.8937 22.3186 39.9368 22.4771C39.9798 22.6356 40.054 22.784 40.1549 22.9136C40.2557 23.0433 40.3813 23.1516 40.5244 23.2323V23.2323Z" fill="white"/>
<path d="M55.7763 27.1858C55.6108 26.9132 55.3478 26.7136 55.0407 26.6276C54.7335 26.5416 54.4052 26.5756 54.1221 26.7226L49.1595 29.6175C48.8633 29.7711 48.6403 30.036 48.5395 30.354C48.4387 30.6719 48.4683 31.0169 48.6218 31.3131C48.7754 31.6092 49.0403 31.8322 49.3583 31.9331C49.6763 32.0339 50.0213 32.0043 50.3174 31.8507L55.2801 28.9724C55.4337 28.8915 55.5692 28.78 55.6782 28.6448C55.7872 28.5096 55.8674 28.3535 55.9139 28.1862C55.9604 28.0189 55.9722 27.8438 55.9485 27.6718C55.9248 27.4998 55.8663 27.3344 55.7763 27.1858V27.1858Z" fill="white"/>
<path d="M41.9304 35.0573L30.849 24.2325L30.1063 23.5065C29.937 23.3422 29.7081 23.25 29.4696 23.25C29.231 23.25 29.0022 23.3422 28.8329 23.5065L17.0088 35.0573C16.8354 35.2262 16.6983 35.4272 16.6057 35.6487C16.5131 35.8701 16.4669 36.1075 16.4697 36.3467C16.4811 37.3333 17.3214 38.1209 18.3309 38.1209H19.5497V47.25H39.3895V38.1209H40.6341C41.1245 38.1209 41.5862 37.9331 41.9332 37.594C42.1041 37.4275 42.2395 37.2296 42.3315 37.0116C42.4236 36.7937 42.4705 36.56 42.4695 36.3243C42.4695 35.8478 42.2774 35.3965 41.9304 35.0573V35.0573ZM31.0756 45.2319H27.8636V39.514H31.0756V45.2319ZM37.3246 36.1028V45.2319H32.911V38.8413C32.911 38.2218 32.3977 37.7201 31.7639 37.7201H27.1753C26.5415 37.7201 26.0282 38.2218 26.0282 38.8413V45.2319H21.6146V36.1028H18.8614L29.4725 25.7405L30.1349 26.3879L40.0806 36.1028H37.3246Z" fill="white"/>
</svg>
